<svg width="300" height="300" xmlns="http://www.w3.org/2000/svg">
    <title>Drawing</title>
    <defs>
        <filter id="svg_2_blur">
            <feGaussianBlur in="SourceGraphic" stdDeviation="3"/>
        </filter>
    </defs>
    <g>
        <title>Layer 1</title>
        <rect fill="#80c342" stroke="#000" stroke-width="0" stroke-dasharray="5,2,2,2,2,2" x="30" y="30" width="240"
              height="240" id="svg_2" rx="50" filter="url(#svg_2_blur)"/>
    </g>
    <g>
        <title>Layer 2</title>
        <g fill="#000000" stroke-width="1.4mm" stroke="#007f00" fill-rule="evenodd" stroke-linecap="round"
           filter="url(#svg_2_blur)"
           id="fontsvg1684096109719">
            <path id="svg_1" vector-effect="non-scaling-stroke"
                  d="m136.03576,190.06334l-15.40166,0l0,-93.06334l30.09583,0l9.19746,66.0085l2.6123,0l9.19746,-66.0085l30.0414,0l0,93.06334l-15.40166,0l0,-74.18477l-2.12249,0l-9.36073,66.20792l-27.32026,0l-9.3063,-66.20792l-2.23134,0l0,74.18477l-0.00001,0zm-13.93225,-91.26854l0,89.47375l12.46283,0l0,-74.31772l4.89806,0l9.41515,66.34086l24.70797,0l9.41515,-66.34086l4.84363,0l0,74.31772l12.46283,0l0,-89.47375l-27.26584,0l-9.25188,66.07497l-5.06132,0l-9.36073,-66.07497l-27.26584,0l-0.00001,0zm-14.5309,94.59223l-10.44918,12.76297l-13.17033,-16.08666l-25.742,0l-11.2111,-13.69361l0,-65.67613l11.2111,-13.69361l37.55176,0l11.2111,13.69361l0,65.67613l-6.58516,8.04333l7.18381,8.97396l0,0.00001zm-23.02086,-5.11848l12.57167,15.35545l8.38112,-10.23697l-7.29266,-8.84102l7.29266,-8.90749l0,-64.2137l-10.34034,-12.63002l-36.35445,0l-10.34034,12.63002l0,64.2137l10.34034,12.63002l25.742,0l0,0.00001zm179.32324,1.79479l-48.49075,0l0,-93.06334l15.40166,0l0,74.25125l33.08908,0l0,18.81209l0.00001,0zm-47.02133,-91.26854l0,89.47375l45.55191,0l0,-15.2225l-33.08908,0l0,-74.25125l-12.46283,0zm-127.94808,74.25125l-23.78278,0l-4.19056,-5.11848l0,-48.79178l4.19056,-5.11848l23.78278,0l4.13614,5.11848l0,48.79178l-4.13614,5.11848zm-26.50392,-5.8497l3.31979,4.0549l22.53105,0l3.37422,-4.0549l0,-47.32935l-3.37422,-4.0549l-22.53105,0l-3.31979,4.0549l0,47.32935z"/>
        </g>
        <g fill="#000000" stroke-width="1.4mm" stroke="#ffffff" fill-rule="evenodd" stroke-linecap="round"
           id="fontsvg1684096109719">
            <path id="svg_1" vector-effect="non-scaling-stroke"
                  d="m130.03576,189.06334l-15.40166,0l0,-93.06334l30.09583,0l9.19746,66.0085l2.6123,0l9.19746,-66.0085l30.0414,0l0,93.06334l-15.40166,0l0,-74.18477l-2.12249,0l-9.36073,66.20792l-27.32026,0l-9.3063,-66.20792l-2.23134,0l0,74.18477l-0.00001,0zm-13.93225,-91.26854l0,89.47375l12.46283,0l0,-74.31772l4.89806,0l9.41515,66.34086l24.70797,0l9.41515,-66.34086l4.84363,0l0,74.31772l12.46283,0l0,-89.47375l-27.26584,0l-9.25188,66.07497l-5.06132,0l-9.36073,-66.07497l-27.26584,0l-0.00001,0zm-14.5309,94.59223l-10.44918,12.76297l-13.17033,-16.08666l-25.742,0l-11.2111,-13.69361l0,-65.67613l11.2111,-13.69361l37.55176,0l11.2111,13.69361l0,65.67613l-6.58516,8.04333l7.18381,8.97396l0,0.00001zm-23.02086,-5.11848l12.57167,15.35545l8.38112,-10.23697l-7.29266,-8.84102l7.29266,-8.90749l0,-64.2137l-10.34034,-12.63002l-36.35445,0l-10.34034,12.63002l0,64.2137l10.34034,12.63002l25.742,0l0,0.00001zm179.32324,1.79479l-48.49075,0l0,-93.06334l15.40166,0l0,74.25125l33.08908,0l0,18.81209l0.00001,0zm-47.02133,-91.26854l0,89.47375l45.55191,0l0,-15.2225l-33.08908,0l0,-74.25125l-12.46283,0zm-127.94808,74.25125l-23.78278,0l-4.19056,-5.11848l0,-48.79178l4.19056,-5.11848l23.78278,0l4.13614,5.11848l0,48.79178l-4.13614,5.11848zm-26.50392,-5.8497l3.31979,4.0549l22.53105,0l3.37422,-4.0549l0,-47.32935l-3.37422,-4.0549l-22.53105,0l-3.31979,4.0549l0,47.32935z"/>
        </g>
    </g>
</svg>